@startuml Part5ClassDiagram
class File {
    -name : String
    +File(name : String)
    +getName() : String
    +setName(name : String) : void
    +toString() : String
}
class Folder {
    -name : String
    -subfolder: ArrayList<Folder>
    -files: ArrayList<File>
    +Folder()
    +getName() : String
    +setName(name : String) : void
    +removeSubFolder(subFolderName : String) : void
    +addSubFolder(subFolderName : String) : void
    +getSubFolder(subFolderName : String) : Folder
    +removeFile(file : File) : boolean
    +addFile(fileName : File) : void
    +toString() : String
    +printFolderContents() : void
}
Folder "1" *-- "0..*" File : files
Folder "1" *-- "0..*" Folder : subFolders
@enduml